<?xml version="1.0" encoding="utf-8"?>
<!-- Generator: Adobe Illustrator 27.5.0, SVG Export Plug-In . SVG Version: 6.00 Build 0)  -->
<svg version="1.1" id="_x2018_ëîé_x5F_1" xmlns="http://www.w3.org/2000/svg" xmlns:xlink="http://www.w3.org/1999/xlink"
	 x="0px" y="0px" viewBox="0 0 3200 2000" style="enable-background:new 0 0 3200 2000;" xml:space="preserve">
<rect style="fill:#FFFFFF;" width="3200" height="2000"/>
<g>
	<path style="fill:#EBF3FA;" d="M3073.905,1074.809c0.022,9.857-0.228,20.269-0.718,31.137c-0.103,2.031-0.194,4.1-0.308,6.167
		c-0.434,8.175-1.015,16.603-1.732,25.222c-0.171,1.959-0.331,3.919-0.513,5.902c-0.205,2.381-0.434,4.785-0.673,7.189
		c-0.991,10.158-2.165,20.558-3.533,31.125c-0.274,2.14-0.56,4.268-0.855,6.407c-1.379,10.23-2.94,20.642-4.696,31.137
		c-0.353,2.14-0.729,4.327-1.105,6.479c-1.778,10.314-3.716,20.701-5.848,31.124c-0.443,2.188-0.911,4.376-1.367,6.552
		c-1.722,8.224-3.579,16.446-5.506,24.657c-1.037,4.328-2.097,8.644-3.168,12.947c-2.622,10.447-5.438,20.834-8.412,31.125
		c-0.616,2.151-1.254,4.279-1.893,6.432c-3.135,10.495-6.439,20.882-9.951,31.1c-0.74,2.164-1.492,4.328-2.256,6.492
		c-3.09,8.716-6.326,17.312-9.678,25.727c-1.847,4.616-3.738,9.173-5.653,13.681c-4.582,10.699-9.427,21.099-14.499,31.101
		c-1.105,2.176-2.223,4.34-3.34,6.479c-5.768,10.904-11.819,21.303-18.191,31.077c-1.345,2.079-2.701,4.123-4.104,6.143
		c-7.717,11.325-15.889,21.747-24.518,31.04c-2.771,3.006-5.586,5.903-8.458,8.656c-13.838,13.356-28.747,23.911-44.772,30.968
		c-1.174,0.518-2.348,1.022-3.533,1.503c-0.297,0.12-0.593,0.24-0.89,0.36c-2.325,0.926-4.662,1.768-7.021,2.549l-124.447,0.181
		l-351.799,0.517l-436.648-2.62l-170.69-1.034l-337.733-2.02l-1020.13-6.119c0,0-189.212-111.983-189.212-306.352
		c0-2.682,0.034-5.351,0.103-8.055c2.793-103.893,30.627-301.892,269.97-404.678c17.189-7.37,35.483-14.27,54.94-20.606
		c17.394-5.663,35.711-10.868,55.02-15.581c24.541-5.987,50.643-11.168,78.432-15.436c2.724-0.433,5.471-0.841,8.229-1.238
		c13.279-1.936,26-4.22,38.196-6.852c322.003-69.162,283.306-368.144,708.021-388.966c38.891-1.923,81.658-1.491,128.961,1.647
		c72.619,4.845,132.46,22.541,185.93,43.351c56.569,21.976,106.027,47.426,155.986,64.702l3.42,1.178
		c49.013,16.59,98.664,25.09,156.146,14.571c2.781-0.493,5.608-1.058,8.446-1.659c63.648-13.524,123.103-23.479,178.612-30.199
		c1.151-0.132,2.291-0.276,3.442-0.409c133.429-15.845,244.107-12.791,336.115,4.857c1.151,0.216,2.302,0.433,3.431,0.673
		c39.746,7.802,75.97,18.345,109.025,31.281c9.232,3.607,18.203,7.394,26.935,11.373c0.262,0.12,0.535,0.228,0.798,0.36
		c1.459,0.673,2.906,1.347,4.354,2.02c1.391,0.649,2.781,1.31,4.172,1.959c0.125,0.061,0.251,0.133,0.377,0.192
		c10.76,5.158,21.154,10.603,31.186,16.302c11.889,6.768,23.299,13.897,34.184,21.375c3.101,2.128,6.178,4.28,9.198,6.468
		c13.712,9.87,26.615,20.329,38.777,31.268c2.405,2.152,4.765,4.328,7.101,6.516c10.692,10.026,20.791,20.449,30.343,31.245
		c2.451,2.765,4.845,5.542,7.216,8.343c8.549,10.123,16.641,20.533,24.277,31.221c1.551,2.164,3.066,4.34,4.583,6.516
		c7.056,10.171,13.724,20.594,20.038,31.209c1.368,2.296,2.725,4.629,4.058,6.948c5.745,9.979,11.183,20.125,16.323,30.416
		c1.914,3.847,3.795,7.694,5.631,11.577c3.202,6.721,6.269,13.513,9.221,20.353c2.484,5.723,4.879,11.469,7.215,17.252
		c4.127,10.303,8.036,20.689,11.707,31.185c0.764,2.164,1.516,4.34,2.245,6.504c2.484,7.261,4.867,14.558,7.146,21.903
		c0.958,3.078,1.903,6.18,2.827,9.281c0.649,2.164,1.3,4.376,1.949,6.564c0.547,1.899,1.082,3.798,1.63,5.686
		c2.154,7.622,4.229,15.28,6.212,22.962c0.217,0.829,0.434,1.671,0.649,2.524c0.548,2.164,1.095,4.328,1.642,6.492
		c2.564,10.351,4.992,20.738,7.261,31.161c0.468,2.14,0.923,4.292,1.391,6.432c2.2,10.375,4.274,20.773,6.212,31.172
		c0.41,2.164,0.81,4.328,1.208,6.492c1.175,6.396,2.291,12.779,3.374,19.151c0.445,2.645,0.855,5.422,1.231,8.307
		c0.147,1.202,0.296,2.44,0.444,3.703c0.308,2.681,0.593,5.47,0.832,8.331c0.82,9.473,1.3,19.908,1.447,31.136
		C3073.895,1070.457,3073.905,1072.633,3073.905,1074.809z"/>
	<g>
		<path style="fill:#D5E5FB;" d="M3071.147,1025.146v112.188c-0.171,1.959-0.331,3.919-0.513,5.902
			c-0.205,2.381-0.434,4.785-0.673,7.189c-0.991,10.158-2.165,20.558-3.533,31.125c-0.274,2.14-0.56,4.268-0.855,6.407
			c-1.379,10.23-2.94,20.642-4.696,31.137c-0.353,2.14-0.729,4.327-1.105,6.479c-1.778,10.314-3.716,20.701-5.848,31.124
			c-0.443,2.188-0.911,4.376-1.367,6.552c-1.722,8.224-3.579,16.446-5.506,24.657c-1.037,4.328-2.097,8.644-3.168,12.947
			c-2.622,10.447-5.438,20.834-8.412,31.125c-0.616,2.151-1.254,4.279-1.893,6.432c-3.135,10.495-6.439,20.882-9.951,31.1
			c-0.74,2.164-1.492,4.328-2.256,6.492c-3.09,8.716-6.326,17.312-9.678,25.727c-1.847,4.616-3.738,9.173-5.653,13.681
			c-4.582,10.699-9.427,21.099-14.499,31.101c-1.105,2.176-2.223,4.34-3.34,6.479c-5.768,10.904-11.819,21.303-18.191,31.077
			c-1.345,2.079-2.701,4.123-4.104,6.143c-7.717,11.325-15.889,21.747-24.518,31.04c-2.771,3.006-5.586,5.903-8.458,8.656
			c-13.838,13.356-28.747,23.911-44.772,30.968c-1.174,0.518-2.348,1.022-3.533,1.503c-0.297,0.12-0.593,0.24-0.89,0.36
			l-919.916,0.626l-170.69-1.034l-337.733-2.02l-1020.13-6.119c0,0-189.212-111.983-189.212-306.352
			c0-2.682,0.034-5.351,0.103-8.055c2.793-103.893,30.627-301.892,269.97-404.678v93.542h54.94V814.5
			c17.394-5.663,35.711-10.868,55.02-15.581c24.541-5.987,50.643-11.168,78.432-15.436c2.724-0.433,5.471-0.841,8.229-1.238
			c13.279-1.936,26-4.22,38.196-6.852v138.948h60.719v-32.458l71.616,0.288v-52.595h14.419v-10.411h1.903v10.411h55.293v0.012
			h11.068v-10.423h1.904v10.423h13.336V934.19h85.26v38.494h47.383v-22.36h43.952v-88.745h21.908v-41.403h3.317v41.403h52.535
			v-77.588h5.152v77.588h34.753v-1.07h-0.057v-9.846h0.057v-9.329h-0.057v-15.496h0.057v-9.918h-0.057v-15.496h0.057v-9.906h-0.057
			v-15.508h0.057v-10.7h-0.057v-15.508h0.057V735.18h-0.057v-15.508h0.057v-10.279h10.35v-11.601h1.665v11.601h76.711v-11.601h1.653
			v11.601h13.997v81.123l9.859,0.06v-0.06h-0.08v-15.508h0.08v-10.7h-0.08v-15.508h0.08v-10.664h-0.08V722.63h0.08v-0.048h93.022
			v0.048h15.992c0.832,0.42,1.653,0.817,2.485,1.238v88.528h68.003v116.251h54.929V713.661h11.956v-15.039h2.144v15.039h43.382
			v-15.039h2.154v15.039h61.426v-15.039h2.154v15.039h38.651v-15.039h2.144v15.039h15.89v200.68h60.707v-32.458l71.616,0.288
			v-52.595h14.419v-10.411h1.903v10.411h55.293v0.012h11.046v-10.423h1.914v10.423h13.337V934.19h85.271v38.494h47.383v-22.36
			h43.952v-88.745h21.908v-41.403h3.316v41.403h52.535v-77.588h5.152v77.588h34.754v-1.07h-0.058v-9.846h0.058v-9.329h-0.058
			v-15.496h0.058v-9.918h-0.058v-15.496h0.058v-9.906h-0.058v-15.508h0.058v-10.7h-0.058v-15.508h0.058V735.18h-0.058v-15.508h0.058
			v-10.279h10.361v-11.601h1.652v11.601h76.699v-11.601h1.664v11.601h13.997v81.123l9.724,0.06h0.137v-0.06h-0.08v-15.508h0.08
			v-10.7h-0.08v-15.508h0.08v-10.664h-0.08V722.63h0.08v-0.048h93.021v0.048h15.98c0.832,0.42,1.652,0.817,2.485,1.238v88.528
			h114.143v116.263h54.94V713.661h11.945v-15.039h2.154v15.039h43.383v-15.039h2.143v15.039h61.438v-15.039h2.143v15.039h56.684
			v200.692h60.719v-32.471l71.616,0.288v-13.248c0.958,3.078,1.903,6.18,2.827,9.281c0.649,2.164,1.3,4.376,1.949,6.564
			c0.547,1.899,1.082,3.798,1.63,5.686c2.154,7.622,4.229,15.28,6.212,22.962c0.217,0.829,0.434,1.671,0.649,2.524
			c0.548,2.164,1.095,4.328,1.642,6.492c2.564,10.351,4.992,20.738,7.261,31.161c0.468,2.14,0.923,4.292,1.391,6.432
			c2.2,10.375,4.274,20.773,6.212,31.172c0.41,2.164,0.81,4.328,1.208,6.492c1.175,6.396,2.291,12.779,3.374,19.151
			C3070.361,1019.484,3070.771,1022.262,3071.147,1025.146z"/>
		<g>
			<rect x="1666.797" y="713.657" style="fill:#E2EEFD;" width="137.251" height="34.018"/>
			<rect x="1666.797" y="766.017" style="fill:#E2EEFD;" width="137.251" height="34.018"/>
			<rect x="1666.797" y="819.469" style="fill:#E2EEFD;" width="137.251" height="34.018"/>
			<rect x="1666.797" y="873.773" style="fill:#E2EEFD;" width="137.251" height="34.018"/>
			<rect x="1666.797" y="926.169" style="fill:#E2EEFD;" width="137.251" height="34.018"/>
			<g>
				<rect x="2328.719" y="709.398" style="fill:#E2EEFD;" width="64.038" height="20.659"/>
				<rect x="2328.719" y="741.196" style="fill:#E2EEFD;" width="64.038" height="20.659"/>
				<rect x="2328.719" y="773.659" style="fill:#E2EEFD;" width="64.038" height="20.659"/>
				<rect x="2328.719" y="806.638" style="fill:#E2EEFD;" width="64.038" height="20.659"/>
				<rect x="2328.719" y="838.459" style="fill:#E2EEFD;" width="64.038" height="20.659"/>
			</g>
			<g>
				<rect x="2328.719" y="873.481" style="fill:#E2EEFD;" width="64.038" height="20.659"/>
				<rect x="2328.719" y="905.279" style="fill:#E2EEFD;" width="64.038" height="20.659"/>
				<rect x="2328.719" y="937.741" style="fill:#E2EEFD;" width="64.038" height="20.66"/>
				<rect x="2328.719" y="970.721" style="fill:#E2EEFD;" width="64.038" height="20.659"/>
				<rect x="2328.719" y="1002.542" style="fill:#E2EEFD;" width="64.038" height="20.659"/>
			</g>
			<g>
				<rect x="2442.631" y="722.946" style="fill:#E2EEFD;" width="68.626" height="20.659"/>
				<rect x="2442.631" y="754.744" style="fill:#E2EEFD;" width="68.626" height="20.659"/>
				<rect x="2442.631" y="787.206" style="fill:#E2EEFD;" width="68.626" height="20.659"/>
				<rect x="2442.631" y="820.186" style="fill:#E2EEFD;" width="68.626" height="20.659"/>
				<rect x="2442.631" y="852.007" style="fill:#E2EEFD;" width="68.626" height="20.659"/>
			</g>
			<g>
				<rect x="2442.631" y="885.183" style="fill:#E2EEFD;" width="68.626" height="20.659"/>
				<rect x="2442.631" y="916.981" style="fill:#E2EEFD;" width="68.626" height="20.659"/>
				<rect x="2442.631" y="949.443" style="fill:#E2EEFD;" width="68.626" height="20.659"/>
				<rect x="2442.631" y="982.422" style="fill:#E2EEFD;" width="68.626" height="20.66"/>
				<rect x="2442.631" y="1014.243" style="fill:#E2EEFD;" width="68.626" height="20.659"/>
			</g>
			<g>
				<rect x="2442.631" y="1050.738" style="fill:#E2EEFD;" width="68.626" height="20.659"/>
				<rect x="2442.631" y="1082.536" style="fill:#E2EEFD;" width="68.626" height="20.659"/>
				<rect x="2442.631" y="1114.999" style="fill:#E2EEFD;" width="68.626" height="20.659"/>
				<rect x="2442.631" y="1147.979" style="fill:#E2EEFD;" width="68.626" height="20.659"/>
				<rect x="2442.631" y="1179.799" style="fill:#E2EEFD;" width="68.626" height="20.659"/>
			</g>
			<rect x="2778.271" y="713.657" style="fill:#E2EEFD;" width="124.956" height="34.018"/>
			<rect x="2778.271" y="766.017" style="fill:#E2EEFD;" width="124.956" height="34.018"/>
			<rect x="2778.271" y="819.469" style="fill:#E2EEFD;" width="124.956" height="34.018"/>
			<rect x="2778.271" y="873.773" style="fill:#E2EEFD;" width="124.956" height="34.018"/>
			<rect x="2778.271" y="926.169" style="fill:#E2EEFD;" width="124.956" height="34.018"/>
			<g>
				<rect x="1274.821" y="709.398" style="fill:#E2EEFD;" width="68.626" height="20.659"/>
				<rect x="1274.821" y="741.196" style="fill:#E2EEFD;" width="68.626" height="20.659"/>
				<rect x="1274.821" y="773.659" style="fill:#E2EEFD;" width="68.626" height="20.659"/>
				<rect x="1274.821" y="806.638" style="fill:#E2EEFD;" width="68.626" height="20.659"/>
				<rect x="1274.821" y="838.459" style="fill:#E2EEFD;" width="68.626" height="20.659"/>
			</g>
			<g>
				<rect x="1274.821" y="873.481" style="fill:#E2EEFD;" width="68.626" height="20.659"/>
				<rect x="1274.821" y="905.279" style="fill:#E2EEFD;" width="68.626" height="20.659"/>
				<rect x="1274.821" y="937.741" style="fill:#E2EEFD;" width="68.626" height="20.66"/>
				<rect x="1274.821" y="970.721" style="fill:#E2EEFD;" width="68.626" height="20.659"/>
				<rect x="1274.821" y="1002.542" style="fill:#E2EEFD;" width="68.626" height="20.659"/>
			</g>
			<g>
				<rect x="1391.03" y="722.946" style="fill:#E2EEFD;" width="77.996" height="20.659"/>
				<rect x="1391.03" y="754.744" style="fill:#E2EEFD;" width="77.996" height="20.659"/>
				<rect x="1391.03" y="787.206" style="fill:#E2EEFD;" width="77.996" height="20.659"/>
				<rect x="1391.03" y="820.186" style="fill:#E2EEFD;" width="77.996" height="20.659"/>
				<rect x="1391.03" y="852.007" style="fill:#E2EEFD;" width="77.996" height="20.659"/>
			</g>
			<g>
				<rect x="1391.03" y="885.183" style="fill:#E2EEFD;" width="77.996" height="20.659"/>
				<rect x="1391.03" y="916.981" style="fill:#E2EEFD;" width="77.996" height="20.659"/>
				<rect x="1391.03" y="949.443" style="fill:#E2EEFD;" width="77.996" height="20.659"/>
				<rect x="1391.03" y="982.422" style="fill:#E2EEFD;" width="77.996" height="20.66"/>
				<rect x="1391.03" y="1014.243" style="fill:#E2EEFD;" width="77.996" height="20.659"/>
			</g>
			<g>
				<rect x="1391.03" y="1050.738" style="fill:#E2EEFD;" width="77.996" height="20.659"/>
				<rect x="1391.03" y="1082.536" style="fill:#E2EEFD;" width="77.996" height="20.659"/>
				<rect x="1391.03" y="1114.999" style="fill:#E2EEFD;" width="77.996" height="20.659"/>
				<rect x="1391.03" y="1147.979" style="fill:#E2EEFD;" width="77.996" height="20.659"/>
				<rect x="1391.03" y="1179.799" style="fill:#E2EEFD;" width="77.996" height="20.659"/>
			</g>
		</g>
	</g>
	<path style="fill:#F8FCFF;" d="M1306.457,593.547c0,0,22.567-37.266,76.532-33.125c0,0,78.348-62.112,161.895-8.281
		c0,0,88.811-13.338,154.581,11.549c43.851,16.593,58.335,33.998,58.335,33.998L1306.457,593.547z"/>
	<path style="fill:#F8FCFF;" d="M1789.287,698.43c0,0,14.621-25.348,49.587-22.532c0,0,50.763-42.25,104.896-5.633
		c0,0,57.543-9.072,100.157,7.856c28.413,11.287,37.798,23.126,37.798,23.126L1789.287,698.43z"/>
	<path style="fill:#F8FCFF;" d="M2202,586.533c0,0,13.314-24.658,45.155-21.918c0,0,46.228-41.097,95.522-5.479
		c0,0,52.4-8.825,91.207,7.642c25.873,10.978,34.42,22.496,34.42,22.496L2202,586.533z"/>
	<g>
		<rect x="1060.682" y="617.498" style="fill:#AEC3FF;" width="20.254" height="922.108"/>
		<path style="fill:#9DB0F4;" d="M1099.524,1554.628c0,0-7.579,6.71-28.715,6.71c-19.857,0-28.714-6.71-28.714-6.71v-216.616
			c0-14.974,12.139-27.112,27.112-27.112h1.858c15.717,0,28.458,12.742,28.458,28.459V1554.628z"/>
		<path style="fill:#AEC3FF;" d="M1105.643,816.275h-69.667c-7.703,0-13.948-6.245-13.948-13.948v-258.19
			c0-7.704,6.245-13.948,13.948-13.948h69.667c7.703,0,13.948,6.245,13.948,13.948v258.19
			C1119.59,810.03,1113.346,816.275,1105.643,816.275z"/>
		
			<ellipse transform="matrix(0.9718 -0.2356 0.2356 0.9718 -127.8704 271.3197)" style="fill:#9DB0F4;" cx="1071.333" cy="670.701" rx="37.444" ry="37.445"/>
		
			<ellipse transform="matrix(0.1727 -0.985 0.985 0.1727 142.2244 1680.217)" style="fill:#9DB0F4;" cx="1071.333" cy="755.443" rx="37.444" ry="37.444"/>
		
			<ellipse transform="matrix(0.1625 -0.9867 0.9867 0.1625 319.967 1547.0043)" style="fill:#F99746;" cx="1071.333" cy="585.008" rx="37.445" ry="37.444"/>
	</g>
	<g>
		<path style="fill:#1D2949;" d="M1857.809,1493.275h841.898l284.331-25.612c0,0-50.88-126.768-64.749-128.673
			c-13.869-1.904-1034.814,0-1034.814,0L1857.809,1493.275z"/>
		<path style="fill:#739AF0;" d="M3105.51,1480.794c-20.953,8.574-147.601,10.481-147.601,10.481s2.862-155.22-127.602-137.129
			c-130.452,18.091-107.646,146.92-107.646,146.92l-627.186,11.195c0,0,10.186-163.631-128.292-146.417
			c-115.048,14.298-85.488,145.803-85.488,145.803c-59.36,3.059-91.179-5.888-108.053-15.229c-0.011,0-0.011-0.011-0.011-0.011
			c-12.642-17.817-5.273-28.244-4.539-30.075c0.724-1.831-1.831-32.158-2.193-36.544c-0.209-2.467,5.135-8.75,9.852-13.775
			c3.893-4.147,4.148-10.522,0.567-14.942l-6.271-7.737c-7.155-8.831-8.792-20.914-4.243-31.33l12.463-28.535c0,0,0,0,0.011-0.011
			c40.645-69.82,359.319-88.876,359.319-88.876c48.396-27.816,88.525-48.495,119.916-63.516
			c50.073-23.957,107.164-47.321,162.412-52.782c149.585-14.791,272.582,1.963,302.733,6.853
			c35.228,5.713,212.354,82.846,225.688,89.513c13.321,6.666,122.054,15.7,136.021,17.399c13.969,1.688,13.552,15.657,13.552,15.657
			l1.919,12.39l7.302,47.189l1.777,11.524c10.163,5.076,10.174,19.625,10.174,19.625S3126.451,1472.22,3105.51,1480.794z"/>
		<g>
			
				<ellipse transform="matrix(0.7071 -0.7071 0.7071 0.7071 -456.1873 1833.9922)" style="fill:#2C3A64;" cx="1985.731" cy="1467.663" rx="96.579" ry="96.579"/>
			<g>
				<path style="fill:#AFCDFB;" d="M1985.73,1543.192c-41.646,0-75.529-33.882-75.529-75.529s33.883-75.529,75.529-75.529
					c41.647,0,75.53,33.882,75.53,75.529S2027.378,1543.192,1985.73,1543.192z M1985.73,1399.117
					c-37.796,0-68.546,30.749-68.546,68.546s30.75,68.546,68.546,68.546c37.797,0,68.546-30.749,68.546-68.546
					S2023.527,1399.117,1985.73,1399.117z"/>
			</g>
			<g>
				<g>
					<polygon style="fill:#AFCDFB;" points="1998.625,1539.775 1971.563,1539.775 1980.25,1465.608 1970.322,1395.164 
						2001.25,1397.073 1990.94,1465.608 					"/>
				</g>
				<g>
					<polygon style="fill:#AFCDFB;" points="1929.582,1514.735 1916.054,1491.299 1984.631,1461.745 2040.678,1417.932 
						2054.485,1445.671 1989.975,1471.004 					"/>
				</g>
				<g>
					<polygon style="fill:#AFCDFB;" points="1918.733,1439.714 1933.601,1417.104 1990.799,1465.108 2055.113,1495.516 
						2036.526,1520.309 1984.925,1474.041 					"/>
				</g>
				<path style="fill:#AFCDFB;" d="M1960.383,1467.528c0-13.917,11.282-25.199,25.2-25.199c13.917,0,25.199,11.282,25.199,25.199
					s-11.282,25.199-25.199,25.199C1971.665,1492.728,1960.383,1481.445,1960.383,1467.528z"/>
			</g>
		</g>
		<g>
			
				<ellipse transform="matrix(0.2298 -0.9732 0.9732 0.2298 760.7198 3896.5354)" style="fill:#2C3A64;" cx="2842.099" cy="1467.663" rx="96.579" ry="96.578"/>
			<g>
				<path style="fill:#AFCDFB;" d="M2842.1,1543.192c-41.647,0-75.529-33.882-75.529-75.529s33.882-75.529,75.529-75.529
					c41.646,0,75.529,33.882,75.529,75.529S2883.746,1543.192,2842.1,1543.192z M2842.1,1399.117
					c-37.797,0-68.547,30.749-68.547,68.546s30.75,68.546,68.547,68.546s68.546-30.749,68.546-68.546
					S2879.896,1399.117,2842.1,1399.117z"/>
			</g>
			<g>
				<g>
					<polygon style="fill:#AFCDFB;" points="2854.993,1539.775 2827.933,1539.775 2836.619,1465.608 2826.691,1395.164 
						2857.618,1397.073 2847.31,1465.608 					"/>
				</g>
				<g>
					<polygon style="fill:#AFCDFB;" points="2785.951,1514.735 2772.423,1491.299 2840.999,1461.745 2897.047,1417.932 
						2910.854,1445.671 2846.344,1471.004 					"/>
				</g>
				<g>
					<polygon style="fill:#AFCDFB;" points="2775.102,1439.714 2789.969,1417.104 2847.168,1465.108 2911.481,1495.516 
						2892.896,1520.309 2841.294,1474.041 					"/>
				</g>
				<path style="fill:#AFCDFB;" d="M2816.752,1467.528c0-13.917,11.282-25.199,25.199-25.199c13.918,0,25.2,11.282,25.2,25.199
					s-11.282,25.199-25.2,25.199C2828.034,1492.728,2816.752,1481.445,2816.752,1467.528z"/>
			</g>
		</g>
		<path style="fill:#AFCDFB;" d="M1892.439,1342.393l-24.789,26.873c-3.563,3.859-8.574,6.053-13.815,6.053h-76.037
			c-4.484,0-7.313-4.824-5.131-8.738l2.171-3.882c2.687-4.802,5.997-9.133,9.813-12.894c0.012-0.012,0.022-0.012,0.022-0.012
			c10.646-10.514,25.151-16.644,40.546-16.644h63.176C1893.196,1333.149,1895.696,1338.862,1892.439,1342.393z"/>
		<path style="fill:#1D2949;" d="M1811.668,1467.663h-21.563c-7.136,0-13.713,3.858-17.194,10.087l-0.739,1.323
			c-0.747,1.336,0.219,2.982,1.75,2.982h25.95c1.791,0,3.501-0.749,4.716-2.065l8.462-9.173
			C1814.16,1469.613,1813.307,1467.663,1811.668,1467.663z"/>
		<path style="fill:#AFCDFB;" d="M2855.961,1235.438l-322.391,7.656c-6.323,0.152-11.523-4.933-11.523-11.249v-74.278
			c0-5.847,4.781-10.558,10.628-10.475c137.478,1.91,184.592,5.743,212.848,15.49c24.92,8.597,83.197,43.951,113.32,61.892
			C2863.922,1227.502,2861.878,1235.298,2855.961,1235.438z"/>
		<path style="fill:#AFCDFB;" d="M2493.993,1146.609c5.231,0.057,10.348,0.12,15.357,0.184v96.879l-311.021,7.383
			c-4.051,0.096-5.727-5.154-2.369-7.421C2232.301,1219.141,2354.021,1145.021,2493.993,1146.609z"/>
		<path style="fill:#AFCDFB;" d="M2854.863,1235.463l-0.172,0.007v-13.466c1.098,0.66,2.171,1.295,3.206,1.911
			C2863.256,1227.102,2861.098,1235.317,2854.863,1235.463z"/>
		<polygon style="fill:#739AF0;" points="2522.047,1247.579 2483.956,1244.561 2486.496,1140.954 2522.047,1140.954 		"/>
		<polygon style="fill:#739AF0;" points="2763.297,1247.579 2745.521,1247.579 2745.521,1154.541 2763.297,1165.208 		"/>
		<path style="fill:#2C3A64;" d="M2237.141,1218.494l9.482,31.413l-51.88,1.231c-3.026,0.072-4.333-3.807-1.875-5.574
			C2204.581,1237.138,2226.288,1222.128,2237.141,1218.494z"/>
		<g>
			<path style="fill:#1D2949;" d="M2192.489,1253.729c-2.12,0-3.975-1.339-4.638-3.363c-0.676-2.062,0.065-4.28,1.846-5.521
				l1.08-0.745c1.121-0.779,2.38-1.636,3.762-2.569c1.139-0.768,2.357-1.578,3.658-2.438l1.964-1.291
				c1.489-0.976,3.065-1.991,4.738-3.057c1.191-0.759,2.425-1.541,3.704-2.349l0.208-0.13c0.183-0.113,0.366-0.229,0.551-0.34
				c1.075-0.671,2.211-1.38,3.38-2.096l0.258-0.158c0.385-0.238,0.775-0.479,1.17-0.716c0.576-0.356,1.187-0.729,1.803-1.101
				c0.855-0.517,1.722-1.039,2.608-1.569c2.489-1.498,5.171-3.078,7.96-4.69c0.863-0.501,1.738-1.006,2.632-1.517
				c1.757-1.013,3.567-2.035,5.425-3.072v-0.001l1.306-0.732c3.748-2.082,7.545-4.147,11.286-6.136l1.23-0.649
				c0.568-0.299,1.141-0.601,1.715-0.906c7.133-3.736,14.46-7.4,21.791-10.899l2.278-1.078c2.286-1.082,4.606-2.159,6.966-3.237
				c0.779-0.361,1.575-0.721,2.379-1.08c1.568-0.716,3.172-1.432,4.795-2.146l2.431-1.069c2.421-1.067,5.003-2.178,7.886-3.392
				c1.494-0.625,2.995-1.248,4.504-1.872c10.166-4.192,20.526-8.13,30.799-11.708l2.249-0.781c0.846-0.292,1.697-0.58,2.547-0.866
				l3.204-1.074c0.865-0.288,1.732-0.571,2.598-0.854l0.102-0.032c0.902-0.299,1.813-0.595,2.727-0.883
				c1.651-0.528,3.31-1.058,4.98-1.573c1.135-0.355,2.285-0.707,3.441-1.059c1.763-0.53,3.525-1.059,5.303-1.58l2.951-0.85
				c1.858-0.53,3.722-1.055,5.599-1.564c3.711-1.021,7.495-2.013,11.238-2.946l0.225-0.058c0.332-0.085,0.661-0.168,0.996-0.248
				c1.592-0.396,3.222-0.792,4.859-1.176c0.964-0.233,1.947-0.465,2.937-0.689l0.739-0.17c0.733-0.169,1.468-0.338,2.202-0.5
				c0.977-0.221,1.961-0.438,2.949-0.655c0.99-0.217,1.979-0.428,2.967-0.638c1-0.212,1.995-0.416,2.992-0.62
				c0.984-0.208,1.986-0.408,2.995-0.606l0.162-0.032c0.947-0.188,1.896-0.374,2.843-0.555c0.943-0.184,1.888-0.362,2.84-0.542
				c1.07-0.198,2.136-0.39,3.209-0.581c0.682-0.125,1.372-0.245,2.064-0.365l0.971-0.169c2.027-0.348,4.052-0.686,6.082-1.005
				c1.011-0.163,2.036-0.32,3.063-0.479l0.156-0.024c1.798-0.27,3.598-0.531,5.398-0.779c3.357-0.465,6.733-0.895,10.035-1.277
				l0.216-0.025c0.929-0.106,1.853-0.213,2.781-0.309c0.645-0.074,1.327-0.146,2.004-0.211c0.657-0.079,1.38-0.151,2.103-0.217
				c0.757-0.08,1.551-0.158,2.346-0.229c1.039-0.101,2.097-0.196,3.161-0.286c1.004-0.089,2.024-0.173,3.044-0.25
				c0.809-0.065,1.583-0.127,2.362-0.185l4.515-0.306c0.89-0.058,1.777-0.108,2.674-0.16l0.393-0.021
				c0.974-0.056,1.976-0.107,2.971-0.152c0.785-0.038,1.586-0.077,2.387-0.108l0.076-0.004c0.716-0.03,1.427-0.062,2.143-0.086
				l1.768-0.063c0.703-0.022,1.406-0.044,2.109-0.063c2.775-0.086,5.363,0.943,7.338,2.866c1.974,1.92,3.061,4.494,3.061,7.246
				v80.285c0,6.673-5.428,12.231-12.098,12.39l-284.324,6.748C2192.572,1253.728,2192.531,1253.729,2192.489,1253.729z
				 M2239.444,1220.118l-1.759,0.982c-2.05,1.142-4.045,2.266-5.984,3.383c-0.891,0.51-1.756,1.009-2.613,1.507
				c-2.77,1.601-5.424,3.164-7.896,4.652c-0.887,0.529-1.746,1.047-2.593,1.56c-0.604,0.364-1.199,0.729-1.789,1.092
				c-0.402,0.242-0.774,0.472-1.142,0.699l-0.269,0.165c-1.163,0.712-2.287,1.413-3.379,2.094l-0.722,0.447
				c-1.258,0.795-2.486,1.574-3.671,2.328c-1.652,1.054-3.212,2.057-4.677,3.017l-1.954,1.284c-1.285,0.851-2.492,1.653-3.617,2.411
				c-1.357,0.918-2.6,1.763-3.715,2.538l-0.517,0.356l53.413-1.267l230.254-5.467c3.938-0.093,7.14-3.373,7.14-7.312v-80.285
				c0-1.37-0.541-2.65-1.523-3.606c-0.984-0.958-2.277-1.463-3.658-1.429c-0.693,0.019-1.387,0.04-2.079,0.063l-1.768,0.063
				c-0.696,0.024-1.392,0.055-2.093,0.084l-0.083,0.004c-0.794,0.032-1.58,0.069-2.36,0.107c-0.981,0.045-1.961,0.094-2.934,0.151
				l-0.394,0.02c-0.865,0.05-1.741,0.101-2.618,0.157l-4.479,0.304c-0.762,0.056-1.521,0.116-2.289,0.179
				c-1.054,0.079-2.052,0.161-3.045,0.249c-1.053,0.089-2.09,0.184-3.127,0.284c-0.785,0.07-1.553,0.145-2.32,0.226
				c-0.713,0.065-1.386,0.133-2.055,0.213c-0.702,0.067-1.352,0.136-1.996,0.21c-0.94,0.097-1.844,0.201-2.752,0.306l-0.214,0.024
				c-3.263,0.379-6.602,0.804-9.923,1.263c-1.781,0.246-3.562,0.505-5.33,0.771l-0.146,0.022c-1.015,0.156-2.029,0.313-3.038,0.475
				c-2.018,0.317-4.019,0.652-6.013,0.993l-0.968,0.169c-0.678,0.118-1.354,0.235-2.032,0.359c-1.071,0.191-2.126,0.38-3.18,0.576
				c-0.937,0.176-1.871,0.353-2.811,0.535c-0.946,0.181-1.883,0.366-2.82,0.551l-0.162,0.032c-0.986,0.194-1.966,0.389-2.944,0.596
				c-1.001,0.206-1.986,0.408-2.972,0.616c-0.976,0.208-1.954,0.416-2.934,0.631c-0.979,0.215-1.951,0.429-2.93,0.65
				c-0.732,0.162-1.452,0.328-2.17,0.493l-0.749,0.172c-0.97,0.221-1.931,0.446-2.891,0.679c-1.633,0.382-3.239,0.773-4.834,1.17
				c-0.334,0.08-0.638,0.157-0.944,0.235l-0.238,0.061c-3.715,0.927-7.459,1.909-11.138,2.92c-1.862,0.508-3.707,1.024-5.544,1.549
				l-2.934,0.845c-1.746,0.513-3.5,1.038-5.246,1.564c-1.137,0.345-2.271,0.691-3.402,1.045c-1.664,0.516-3.307,1.04-4.949,1.564
				c-0.897,0.284-1.789,0.572-2.68,0.867l-0.111,0.036c-0.855,0.279-1.713,0.56-2.568,0.845l-3.188,1.068
				c-0.836,0.282-1.676,0.565-2.507,0.853l-2.237,0.777c-10.187,3.548-20.458,7.453-30.535,11.607
				c-1.498,0.619-2.993,1.24-4.475,1.861c-2.853,1.2-5.409,2.3-7.811,3.358l-2.425,1.066c-1.603,0.707-3.187,1.413-4.751,2.127
				c-0.8,0.357-1.576,0.708-2.348,1.065c-2.352,1.074-4.651,2.143-6.921,3.217l-2.271,1.075
				c-7.263,3.466-14.533,7.102-21.596,10.802c-0.566,0.301-1.145,0.605-1.72,0.908l-1.217,0.642
				C2246.217,1216.407,2242.814,1218.253,2239.444,1220.118z"/>
		</g>
		<g>
			<path style="fill:#1D2949;" d="M2768.611,1240.158c-1.896,0-3.703-0.745-5.104-2.111c-1.563-1.522-2.459-3.692-2.459-5.951
				v-54.209c0-3.084,0.456-7.021,2.953-8.577c2.261-1.41,6.064-0.384,8.448,0.785c2.653,1.304,4.504,2.237,5.5,2.775
				c0.107,0.054,0.252,0.134,0.399,0.215l1.081,0.589c13.509,7.379,32.743,18.994,57.17,34.523c1.039,0.657,2.075,1.317,3.101,1.972
				c2.464,1.57,4.86,3.106,7.164,4.589l8.568,5.529c1.489,0.965,2.917,1.895,4.279,2.783c0.187,0.118,0.399,0.256,0.608,0.392
				l0.187,0.121c2.854,1.859,4.118,5.401,3.151,8.817c-0.918,3.24-3.57,5.387-6.757,5.469l-0.933,0.023l-87.17,2.264
				C2768.736,1240.158,2768.674,1240.158,2768.611,1240.158z M2769.087,1173.799c-0.731,0-1.32,0.275-1.675,0.496
				c-1.168,0.729-1.867,2.071-1.867,3.592v54.209c0,1.054,0.401,2.049,1.102,2.73c0.571,0.557,1.289,0.846,2.037,0.834l88.102-2.287
				c1.797-0.046,2.402-1.693,2.545-2.197c0.33-1.165,0.194-2.865-1.273-3.821l-0.187-0.121c-0.195-0.127-0.394-0.255-0.59-0.38
				c-1.384-0.902-2.808-1.83-4.294-2.793l-8.551-5.517c-2.304-1.483-4.695-3.016-7.154-4.583c-1.02-0.651-2.05-1.308-3.09-1.964
				c-24.349-15.479-43.496-27.044-56.916-34.376l-1.094-0.595c-0.11-0.062-0.219-0.121-0.33-0.178
				c-0.973-0.525-2.82-1.457-5.385-2.716C2769.972,1173.89,2769.506,1173.799,2769.087,1173.799z"/>
		</g>
		<path style="fill:#2C3A64;" d="M2237.141,1218.494l9.482,31.413l-51.88,1.231c-3.026,0.072-4.333-3.807-1.875-5.574
			C2204.581,1237.138,2226.288,1222.128,2237.141,1218.494z"/>
		<g>
			<path style="fill:#1D2949;" d="M2533.28,1245.633c-3.614,0-7.017-1.384-9.615-3.919c-2.683-2.617-4.159-6.122-4.159-9.868
				v-74.281c0-3.508,1.376-6.797,3.875-9.262c2.502-2.467,5.816-3.776,9.327-3.75c141.899,1.975,185.839,5.193,213.707,15.654
				l1.647,0.618v79.717l-214.436,5.087C2533.512,1245.631,2533.396,1245.633,2533.28,1245.633z M2532.523,1149.631
				c-2.102,0-4.077,0.81-5.576,2.288c-1.523,1.502-2.362,3.507-2.362,5.646v74.281c0,2.366,0.933,4.58,2.627,6.233
				c1.693,1.652,3.946,2.54,6.293,2.473l209.479-4.97v-71.221c-27.116-9.625-73.622-12.828-210.346-14.729
				C2532.6,1149.631,2532.561,1149.631,2532.523,1149.631z"/>
		</g>
		<path style="fill:#A9453D;" d="M3108.137,1317.289h-60.699c-9.03,0-17.562-4.143-23.146-11.239l-22.956-29.172
			c-2.164-2.75-0.205-6.783,3.294-6.783h96.207L3108.137,1317.289z"/>
		<g>
			
				<rect x="2343.53" y="1307.201" transform="matrix(0.0115 -0.9999 0.9999 0.0115 1168.8734 3799.3809)" style="fill:#1D2949;" width="325.292" height="2.54"/>
		</g>
		<g>
			
				<rect x="2094.179" y="1472.582" transform="matrix(0.9998 -0.02 0.02 0.9998 -29.0009 48.464)" style="fill:#1D2949;" width="627.619" height="2.539"/>
		</g>
		<path style="fill:#2C3A64;" d="M2469.415,1311.061c0,3.439-15.348,6.229-34.28,6.229s-34.28-2.789-34.28-6.229
			c0-3.44,15.348-6.229,34.28-6.229S2469.415,1307.62,2469.415,1311.061z"/>
		<path style="fill:#2C3A64;" d="M2788.689,1311.061c0,3.439-15.349,6.229-34.281,6.229c-18.932,0-34.279-2.789-34.279-6.229
			c0-3.44,15.348-6.229,34.279-6.229C2773.341,1304.831,2788.689,1307.62,2788.689,1311.061z"/>
		<g>
			<path style="fill:#1D2949;" d="M2697.265,1467.731l-2.535-0.138c1.752-32.337,11.336-59.59,28.485-81.004
				c13.721-17.132,32.272-30.564,55.141-39.924c34.788-14.238,69.24-14.607,76.338-14.505v-96.723h2.539v99.345l-1.322-0.056
				c-0.383-0.017-38.328-1.394-76.668,14.319c-22.445,9.199-40.64,22.378-54.075,39.167
				C2708.375,1409.199,2698.987,1435.953,2697.265,1467.731z"/>
		</g>
		<g>
			<path style="fill:#1D2949;" d="M2170.723,1478.521c-0.984-83.897,3.688-141.944,7.779-175.867
				c4.44-36.809,9.189-54.012,9.236-54.181l2.445,0.685c-0.188,0.673-18.801,69.169-16.921,229.334L2170.723,1478.521z"/>
		</g>
		<g>
			<rect x="2483.004" y="1145.82" style="fill:#1D2949;" width="49.671" height="2.54"/>
		</g>
		<path style="fill:#2C3A64;" d="M1822.083,1375.318h-44.285c-4.484,0-7.313-4.824-5.131-8.738l2.171-3.882
			c2.687-4.802,5.997-9.133,9.813-12.894c0.012-0.012,0.022-0.012,0.022-0.012l26.808,4.441l-10.592,11.6l12.664,2.555
			L1822.083,1375.318z"/>
		<g>
			<path style="fill:#739AF0;" d="M1807.832,1303.702c-1.026,0-2.038-0.479-2.68-1.379c-1.055-1.478-0.712-3.53,0.766-4.586
				c0.213-0.152,5.407-3.842,22.13-14.021c17.539-10.677,34.281-12.893,45.349-13.629c6.814-0.455,13.531-10.32,17.545-16.216
				c1.471-2.159,2.631-3.864,3.647-4.964c1.591-1.722,3.235-3.503,124.52-5.819c59.27-1.134,132.449-1.797,119.452-1.797
				c-0.013,0,13.532,0,13.545,0c1.8,0,1.868,4.303,2.193,6.078c4.006,21.88-19.747,10.994-21.563,11.015
				c-90.532,0.99-221.491-7.11-233.776-4.463c-0.683,0.866-1.609,2.228-2.58,3.652c-4.99,7.331-12.532,18.409-22.546,19.077
				c-10.376,0.691-26.059,2.758-42.365,12.685c-16.436,10.005-21.677,13.72-21.729,13.756
				C1809.16,1303.504,1808.493,1303.702,1807.832,1303.702z"/>
		</g>
		<path style="fill:#6390E0;" d="M2283.439,1263.318h-40.294c-7.236,0-13.157-5.92-13.157-13.156v-10.965
			c0-7.236,5.921-13.157,13.157-13.157h40.294c7.236,0,13.156,5.921,13.156,13.157v10.965
			C2296.596,1257.398,2290.676,1263.318,2283.439,1263.318z"/>
	</g>
	<g>
		<path style="fill:#1D2949;" d="M257.475,1488.829h841.899l284.331-25.612c0,0-50.879-126.768-64.749-128.672
			c-13.869-1.905-1034.815,0-1034.815,0L257.475,1488.829z"/>
		<path style="fill:#F99746;" d="M1516.321,1362.512c-2.971,10.307-8.53,12.543-8.519,34.757c0.011,8.728,1.952,19.735-2.434,29.417
			c-1.908,4.199-13.705,11.194-10.416,25.218c0,0-19.461,15.076-20.284,16.994c-0.822,1.919-2.193,12.609-2.193,12.609
			c-20.953,8.574-114.894,5.317-114.894,5.317s2.851-155.209-127.601-137.118s-107.658,146.92-107.658,146.92l-627.186,11.184
			c0,0,10.186-163.619-128.281-146.416c-115.048,14.298-85.499,145.802-85.499,145.802
			c-114.697,5.932-126.549-33.013-126.549-33.013v-16.073H162v-42.333h-7.192v-31.522l24.132-55.237
			c10.164-17.455,37.695-31.741,73.296-43.342c106.769-34.822,286.023-45.534,286.023-45.534
			c48.407-27.827,88.536-48.506,119.927-63.527c50.073-23.956,107.153-47.321,162.402-52.781
			c149.585-14.779,272.592,1.974,302.744,6.863c35.229,5.713,212.344,82.835,225.677,89.501s122.064,15.712,136.033,17.4
			s13.541,15.657,13.541,15.657l1.918,12.4l-2.258,7.258l-10.427-3.629l4.397,15.689l-1.371,6.579l14.012,2.226l2.949,19.066
			l1.788,11.513C1519.742,1329.444,1517.856,1357.194,1516.321,1362.512z"/>
		<g>
			
				<ellipse transform="matrix(0.1832 -0.9831 0.9831 0.1832 -1123.6578 1574.0641)" style="fill:#2C3A64;" cx="385.398" cy="1463.217" rx="96.578" ry="96.579"/>
			<g>
				<path style="fill:#AFCDFB;" d="M385.398,1538.747c-41.647,0-75.53-33.883-75.53-75.53c0-41.646,33.882-75.529,75.53-75.529
					c41.647,0,75.529,33.883,75.529,75.529C460.927,1504.864,427.045,1538.747,385.398,1538.747z M385.398,1394.671
					c-37.796,0-68.546,30.75-68.546,68.546c0,37.797,30.75,68.547,68.546,68.547c37.796,0,68.546-30.75,68.546-68.547
					C453.944,1425.421,423.194,1394.671,385.398,1394.671z"/>
			</g>
			<g>
				<g>
					<polygon style="fill:#AFCDFB;" points="398.292,1535.33 371.23,1535.33 379.917,1461.163 369.99,1390.719 400.917,1392.628 
						390.607,1461.163 					"/>
				</g>
				<g>
					<polygon style="fill:#AFCDFB;" points="329.249,1510.289 315.721,1486.853 384.298,1457.299 440.345,1413.486 
						454.152,1441.226 389.642,1466.559 					"/>
				</g>
				<g>
					<polygon style="fill:#AFCDFB;" points="318.4,1435.269 333.268,1412.657 390.466,1460.663 454.78,1491.07 436.193,1515.862 
						384.592,1469.596 					"/>
				</g>
				<path style="fill:#AFCDFB;" d="M360.05,1463.083c0-13.918,11.282-25.2,25.199-25.2c13.918,0,25.2,11.282,25.2,25.2
					c0,13.917-11.282,25.199-25.2,25.199C371.332,1488.282,360.05,1477,360.05,1463.083z"/>
			</g>
		</g>
		<g>
			
				<ellipse transform="matrix(0.2898 -0.9571 0.9571 0.2898 -518.5107 2227.6855)" style="fill:#2C3A64;" cx="1241.766" cy="1463.217" rx="96.578" ry="96.579"/>
			<g>
				<path style="fill:#AFCDFB;" d="M1241.767,1538.747c-41.647,0-75.529-33.883-75.529-75.53c0-41.646,33.882-75.529,75.529-75.529
					s75.529,33.883,75.529,75.529C1317.296,1504.864,1283.414,1538.747,1241.767,1538.747z M1241.767,1394.671
					c-37.796,0-68.546,30.75-68.546,68.546c0,37.797,30.75,68.547,68.546,68.547s68.546-30.75,68.546-68.547
					C1310.313,1425.421,1279.563,1394.671,1241.767,1394.671z"/>
			</g>
			<g>
				<g>
					<polygon style="fill:#AFCDFB;" points="1254.66,1535.33 1227.6,1535.33 1236.286,1461.163 1226.358,1390.719 
						1257.285,1392.628 1246.977,1461.163 					"/>
				</g>
				<g>
					<polygon style="fill:#AFCDFB;" points="1185.618,1510.289 1172.09,1486.853 1240.667,1457.299 1296.714,1413.486 
						1310.521,1441.226 1246.011,1466.559 					"/>
				</g>
				<g>
					<polygon style="fill:#AFCDFB;" points="1174.769,1435.269 1189.636,1412.657 1246.835,1460.663 1311.149,1491.07 
						1292.563,1515.862 1240.961,1469.596 					"/>
				</g>
				<path style="fill:#AFCDFB;" d="M1216.419,1463.083c0-13.918,11.282-25.2,25.2-25.2c13.917,0,25.2,11.282,25.2,25.2
					c0,13.917-11.283,25.199-25.2,25.199C1227.701,1488.282,1216.419,1477,1216.419,1463.083z"/>
			</g>
		</g>
		<path style="fill:#F9DDBF;" d="M288.06,1328.7h-63.18c-20.906,0-40.178,11.307-50.378,29.556l-2.167,3.877
			c-2.188,3.915,0.642,8.738,5.126,8.738h76.035c5.248,0,10.258-2.194,13.817-6.052l24.795-26.875
			C295.365,1334.415,292.862,1328.7,288.06,1328.7z"/>
		<path style="fill:#1D2949;" d="M211.335,1463.217h-21.563c-7.135,0-13.713,3.859-17.194,10.088l-0.74,1.323
			c-0.747,1.336,0.219,2.981,1.749,2.981h25.951c1.791,0,3.501-0.748,4.716-2.064l8.462-9.173
			C213.828,1465.168,212.973,1463.217,211.335,1463.217z"/>
		<path style="fill:#AFCDFB;" d="M1255.628,1230.992l-322.391,7.656c-6.323,0.152-11.522-4.933-11.522-11.25v-74.277
			c0-5.847,4.78-10.558,10.627-10.476c137.478,1.911,184.592,5.743,212.847,15.491c24.921,8.597,83.198,43.95,113.321,61.892
			C1263.589,1223.057,1261.545,1230.853,1255.628,1230.992z"/>
		<path style="fill:#AFCDFB;" d="M893.66,1142.163c5.231,0.058,10.348,0.121,15.357,0.185v96.879l-311.021,7.383
			c-4.05,0.096-5.727-5.155-2.368-7.421C631.967,1214.695,753.688,1140.576,893.66,1142.163z"/>
		<path style="fill:#AFCDFB;" d="M1254.53,1231.018l-0.171,0.006v-13.465c1.098,0.66,2.171,1.295,3.206,1.911
			C1262.922,1222.656,1260.764,1230.871,1254.53,1231.018z"/>
		<polygon style="fill:#F99746;" points="921.714,1243.134 883.623,1240.115 886.163,1136.508 921.714,1136.508 		"/>
		<polygon style="fill:#F99746;" points="1162.964,1243.134 1145.188,1243.134 1145.188,1150.095 1162.964,1160.762 		"/>
		<path style="fill:#2C3A64;" d="M636.808,1214.049l9.482,31.413l-51.88,1.231c-3.026,0.072-4.332-3.807-1.875-5.574
			C604.248,1232.692,625.955,1217.683,636.808,1214.049z"/>
		<g>
			<path style="fill:#1D2949;" d="M592.156,1249.283c-2.12,0-3.975-1.34-4.638-3.364c-0.675-2.061,0.066-4.279,1.846-5.52
				l1.081-0.745c1.121-0.779,2.38-1.637,3.761-2.57c1.14-0.768,2.358-1.577,3.659-2.438l1.964-1.29
				c1.489-0.976,3.065-1.991,4.738-3.058c1.191-0.758,2.425-1.54,3.704-2.348l0.208-0.13c0.182-0.114,0.366-0.229,0.551-0.34
				c1.075-0.672,2.211-1.381,3.38-2.096l0.258-0.158c0.385-0.239,0.775-0.479,1.169-0.716c0.577-0.356,1.187-0.729,1.803-1.101
				c0.855-0.518,1.722-1.04,2.608-1.569c2.49-1.498,5.171-3.078,7.961-4.69c0.863-0.502,1.738-1.006,2.631-1.517
				c1.758-1.014,3.568-2.035,5.426-3.072v-0.001l1.306-0.732c3.747-2.083,7.544-4.147,11.286-6.137l1.23-0.648
				c0.569-0.3,1.141-0.601,1.715-0.906c7.133-3.736,14.46-7.4,21.793-10.899l2.277-1.078c2.286-1.082,4.607-2.159,6.966-3.238
				c0.779-0.36,1.575-0.72,2.379-1.08c1.568-0.715,3.172-1.431,4.794-2.146l2.431-1.069c2.421-1.067,5.003-2.178,7.886-3.392
				c1.494-0.626,2.995-1.249,4.504-1.873c10.166-4.191,20.526-8.13,30.798-11.707l2.25-0.781c0.846-0.293,1.697-0.58,2.547-0.866
				l3.204-1.074c0.865-0.289,1.732-0.571,2.598-0.854l0.101-0.033c0.903-0.299,1.814-0.594,2.727-0.883
				c1.652-0.527,3.31-1.057,4.981-1.573c1.135-0.354,2.285-0.706,3.441-1.058c1.763-0.53,3.526-1.059,5.303-1.581l2.951-0.85
				c1.858-0.53,3.722-1.054,5.599-1.563c3.711-1.021,7.495-2.013,11.238-2.947l0.225-0.057c0.332-0.085,0.661-0.169,0.996-0.248
				c1.591-0.396,3.222-0.793,4.859-1.177c0.965-0.233,1.948-0.464,2.937-0.689l0.74-0.17c0.732-0.168,1.468-0.338,2.202-0.5
				c0.977-0.221,1.96-0.438,2.949-0.654c0.99-0.217,1.979-0.428,2.968-0.639c1-0.211,1.995-0.415,2.991-0.62
				c0.985-0.208,1.986-0.407,2.996-0.606l0.162-0.031c0.947-0.188,1.896-0.374,2.843-0.556c0.942-0.184,1.887-0.362,2.839-0.541
				c1.07-0.199,2.136-0.391,3.21-0.581c0.681-0.125,1.373-0.245,2.064-0.365l0.97-0.17c2.028-0.347,4.052-0.685,6.083-1.004
				c1.011-0.163,2.036-0.321,3.063-0.479l0.157-0.024c1.797-0.27,3.597-0.531,5.398-0.78c3.357-0.464,6.733-0.894,10.035-1.276
				l0.216-0.025c0.928-0.107,1.852-0.213,2.781-0.309c0.644-0.075,1.328-0.146,2.004-0.211c0.658-0.08,1.38-0.152,2.102-0.218
				c0.756-0.08,1.551-0.157,2.346-0.229c1.039-0.101,2.097-0.197,3.161-0.287c1.004-0.089,2.024-0.172,3.044-0.249
				c0.809-0.065,1.583-0.128,2.362-0.185l4.514-0.306c0.89-0.058,1.778-0.109,2.675-0.16l0.392-0.021
				c0.974-0.057,1.976-0.107,2.971-0.152c0.786-0.038,1.586-0.077,2.387-0.108l0.076-0.004c0.716-0.03,1.427-0.062,2.143-0.086
				l1.768-0.063c0.702-0.022,1.406-0.044,2.109-0.063c2.775-0.086,5.363,0.942,7.338,2.865c1.973,1.921,3.06,4.494,3.06,7.247
				v80.285c0,6.673-5.428,12.231-12.098,12.389l-284.324,6.749C592.239,1249.282,592.198,1249.283,592.156,1249.283z
				 M639.111,1215.673l-1.758,0.981c-2.05,1.143-4.045,2.267-5.984,3.384c-0.891,0.509-1.756,1.008-2.614,1.506
				c-2.769,1.601-5.423,3.165-7.895,4.653c-0.887,0.529-1.746,1.047-2.593,1.56c-0.603,0.364-1.199,0.728-1.789,1.092
				c-0.402,0.242-0.774,0.472-1.141,0.698l-0.268,0.166c-1.163,0.712-2.287,1.412-3.379,2.094l-0.721,0.447
				c-1.258,0.795-2.487,1.574-3.672,2.328c-1.652,1.053-3.211,2.057-4.676,3.017l-1.954,1.283c-1.286,0.852-2.493,1.653-3.618,2.412
				c-1.357,0.918-2.599,1.763-3.715,2.538l-0.516,0.355l53.413-1.266l230.254-5.467c3.937-0.094,7.14-3.373,7.14-7.312v-80.285
				c0-1.37-0.542-2.651-1.523-3.606c-0.984-0.959-2.277-1.464-3.658-1.43c-0.694,0.02-1.387,0.041-2.08,0.063l-1.767,0.063
				c-0.697,0.023-1.392,0.054-2.093,0.084l-0.083,0.004c-0.794,0.031-1.581,0.069-2.361,0.107c-0.981,0.044-1.961,0.094-2.934,0.15
				l-0.394,0.021c-0.865,0.05-1.741,0.1-2.617,0.156l-4.48,0.305c-0.762,0.055-1.522,0.116-2.289,0.178
				c-1.054,0.08-2.052,0.162-3.045,0.25c-1.053,0.089-2.09,0.183-3.127,0.283c-0.786,0.07-1.553,0.146-2.321,0.227
				c-0.712,0.065-1.386,0.133-2.054,0.212c-0.703,0.068-1.352,0.137-1.997,0.211c-0.94,0.097-1.843,0.201-2.751,0.305l-0.214,0.025
				c-3.263,0.378-6.602,0.804-9.922,1.263c-1.782,0.246-3.562,0.505-5.33,0.771l-0.147,0.022c-1.015,0.156-2.029,0.313-3.038,0.475
				c-2.018,0.317-4.018,0.651-6.013,0.993l-0.968,0.168c-0.678,0.118-1.355,0.236-2.033,0.36c-1.071,0.19-2.125,0.38-3.179,0.576
				c-0.937,0.175-1.871,0.353-2.811,0.535c-0.946,0.181-1.883,0.365-2.821,0.551l-0.162,0.032c-0.986,0.194-1.965,0.389-2.944,0.596
				c-1.002,0.205-1.987,0.408-2.972,0.616c-0.975,0.208-1.954,0.416-2.934,0.631c-0.978,0.214-1.951,0.429-2.929,0.65
				c-0.733,0.161-1.453,0.327-2.17,0.492l-0.749,0.173c-0.97,0.221-1.931,0.446-2.891,0.679c-1.632,0.382-3.239,0.772-4.834,1.17
				c-0.333,0.08-0.638,0.157-0.944,0.235l-0.239,0.061c-3.714,0.927-7.458,1.908-11.137,2.92c-1.862,0.507-3.707,1.024-5.544,1.549
				l-2.933,0.845c-1.746,0.513-3.5,1.038-5.247,1.564c-1.136,0.345-2.272,0.691-3.402,1.045c-1.664,0.515-3.307,1.039-4.95,1.563
				c-0.897,0.284-1.788,0.573-2.679,0.868l-0.111,0.036c-0.856,0.279-1.713,0.559-2.568,0.844l-3.187,1.069
				c-0.837,0.282-1.676,0.564-2.507,0.853l-2.237,0.777c-10.186,3.547-20.458,7.452-30.535,11.607
				c-1.498,0.619-2.993,1.239-4.475,1.86c-2.852,1.201-5.409,2.3-7.81,3.359l-2.425,1.066c-1.603,0.706-3.187,1.413-4.751,2.126
				c-0.799,0.358-1.577,0.709-2.347,1.066c-2.352,1.074-4.652,2.142-6.921,3.216l-2.27,1.076
				c-7.263,3.466-14.534,7.102-21.596,10.801c-0.566,0.302-1.144,0.606-1.719,0.909l-1.217,0.642
				C645.884,1211.961,642.481,1213.808,639.111,1215.673z"/>
		</g>
		<g>
			<path style="fill:#1D2949;" d="M1168.278,1235.713c-1.896,0-3.703-0.745-5.104-2.111c-1.563-1.523-2.459-3.692-2.459-5.951
				v-54.209c0-3.084,0.457-7.021,2.953-8.578c2.261-1.409,6.064-0.383,8.448,0.786c2.654,1.303,4.504,2.236,5.501,2.775
				c0.106,0.054,0.252,0.134,0.399,0.214l1.082,0.589c13.508,7.38,32.743,18.995,57.169,34.524c1.04,0.656,2.076,1.316,3.101,1.971
				c2.464,1.571,4.86,3.106,7.165,4.59l8.568,5.529c1.489,0.964,2.917,1.894,4.279,2.783c0.187,0.117,0.399,0.255,0.608,0.392
				l0.187,0.121c2.853,1.859,4.118,5.401,3.15,8.817c-0.917,3.24-3.569,5.387-6.756,5.469l-0.932,0.023l-87.17,2.264
				C1168.403,1235.712,1168.341,1235.713,1168.278,1235.713z M1168.754,1169.354c-0.731,0-1.32,0.275-1.674,0.496
				c-1.169,0.729-1.868,2.071-1.868,3.592v54.209c0,1.054,0.401,2.048,1.102,2.73c0.571,0.557,1.29,0.845,2.037,0.834l88.102-2.287
				c1.797-0.047,2.402-1.694,2.545-2.198c0.33-1.164,0.194-2.864-1.273-3.82l-0.187-0.121c-0.195-0.127-0.393-0.255-0.59-0.38
				c-1.384-0.903-2.808-1.83-4.294-2.793l-8.55-5.518c-2.304-1.482-4.695-3.016-7.154-4.582c-1.021-0.651-2.05-1.309-3.089-1.965
				c-24.35-15.479-43.497-27.044-56.917-34.375l-1.093-0.596c-0.11-0.061-0.219-0.12-0.33-0.177
				c-0.973-0.526-2.821-1.458-5.385-2.717C1169.639,1169.443,1169.173,1169.354,1168.754,1169.354z"/>
		</g>
		<path style="fill:#2C3A64;" d="M636.808,1214.049l9.482,31.413l-51.88,1.231c-3.026,0.072-4.332-3.807-1.875-5.574
			C604.248,1232.692,625.955,1217.683,636.808,1214.049z"/>
		<g>
			<path style="fill:#1D2949;" d="M932.947,1241.188c-3.614,0-7.017-1.384-9.616-3.919c-2.682-2.618-4.159-6.122-4.159-9.869v-74.28
				c0-3.509,1.376-6.798,3.875-9.262c2.502-2.467,5.817-3.777,9.327-3.75c141.899,1.974,185.839,5.192,213.707,15.654l1.647,0.618
				v79.717l-214.435,5.087C933.179,1241.186,933.063,1241.188,932.947,1241.188z M932.19,1145.186c-2.101,0-4.077,0.81-5.576,2.287
				c-1.523,1.503-2.362,3.508-2.362,5.646v74.28c0,2.366,0.933,4.58,2.627,6.234c1.693,1.652,3.947,2.54,6.293,2.472l209.478-4.969
				v-71.222c-27.115-9.624-73.621-12.827-210.345-14.729C932.266,1145.186,932.228,1145.186,932.19,1145.186z"/>
		</g>
		<path style="fill:#A9453D;" d="M1507.802,1312.844h-60.698c-9.035,0-17.564-4.145-23.146-11.238L1401,1272.43
			c-2.16-2.752-0.208-6.775,3.3-6.775h96.2l-2.258,7.258l-10.427-3.629l4.397,15.689l-1.371,6.579l14.012,2.226L1507.802,1312.844z"
			/>
		<g>
			
				<rect x="743.197" y="1302.755" transform="matrix(0.0119 -0.9999 0.9999 0.0119 -408.898 2194.2432)" style="fill:#1D2949;" width="325.292" height="2.539"/>
		</g>
		<g>
			
				<rect x="493.846" y="1468.136" transform="matrix(0.9998 -0.0198 0.0198 0.9998 -28.9462 16.2855)" style="fill:#1D2949;" width="627.619" height="2.54"/>
		</g>
		<path style="fill:#ED823A;" d="M869.082,1306.614c0,3.44-15.348,6.229-34.28,6.229c-18.933,0-34.281-2.789-34.281-6.229
			s15.348-6.229,34.281-6.229C853.734,1300.386,869.082,1303.174,869.082,1306.614z"/>
		<path style="fill:#ED823A;" d="M1188.356,1306.614c0,3.44-15.348,6.229-34.28,6.229s-34.28-2.789-34.28-6.229
			s15.348-6.229,34.28-6.229S1188.356,1303.174,1188.356,1306.614z"/>
		<g>
			<path style="fill:#1D2949;" d="M1096.932,1463.286l-2.536-0.138c1.752-32.337,11.336-59.591,28.485-81.004
				c13.721-17.133,32.273-30.564,55.141-39.924c34.788-14.238,69.24-14.607,76.337-14.505v-96.724h2.54v99.345l-1.322-0.055
				c-0.382-0.017-38.328-1.394-76.667,14.319c-22.446,9.199-40.64,22.377-54.075,39.167
				C1108.042,1404.754,1098.654,1431.508,1096.932,1463.286z"/>
		</g>
		<g>
			<path style="fill:#1D2949;" d="M570.39,1474.076c-0.984-83.897,3.687-141.945,7.779-175.867
				c4.44-36.809,9.189-54.012,9.236-54.181l2.445,0.685c-0.188,0.673-18.801,69.168-16.921,229.334L570.39,1474.076z"/>
		</g>
		<g>
			<rect x="882.671" y="1141.375" style="fill:#1D2949;" width="49.671" height="2.539"/>
		</g>
		<path style="fill:#E58339;" d="M1494.952,1451.903c0,0-9.681-4.199-15.536-5.296c-5.844-1.097-39.833,3.289-39.833,3.289
			s14.615-9.867,22.291-13.157c7.675-3.289,43.495-10.054,43.495-10.054C1503.46,1430.885,1491.663,1437.88,1494.952,1451.903z"/>
		<polygon style="fill:#E58339;" points="1507.804,1383.925 1477.41,1371.316 1459.319,1347.14 1499.886,1361.997 
			1516.321,1362.512 		"/>
		<path style="fill:#E58339;" d="M1479.054,1402.564c0,0-29.055-3.289-35.634,0s-23.025,20.283-20.832,24.121
			c2.192,3.838,31.248-12.975,42.212-12.792s43.408-5.301,43.408-5.301L1479.054,1402.564z"/>
		<path style="fill:#F99746;" d="M1403.401,1559.707c0,0,31.248-10.771,38.923-12.963c7.675-2.193,25.035-2.666,25.035-2.666
			s-3.754,9.609-2.06,10.341c1.695,0.73,9.37,5.377,9.37,5.377L1403.401,1559.707z"/>
		<path style="fill:#F99746;" d="M1520.718,1559.707c0,0,20.466-9.674,25.583-9.674s25.949,4.837,25.949,4.837l-2.193,4.926
			L1520.718,1559.707z"/>
		<polygon style="fill:#7A231F;" points="1507.802,1312.844 1474.668,1312.844 1473.298,1307.998 1485.633,1300.323 
			1465.897,1294.841 1460.963,1285.795 1478.232,1277.298 1471.928,1265.654 1500.5,1265.654 1498.242,1272.912 1487.814,1269.283 
			1492.211,1284.973 1490.841,1291.552 1504.853,1293.777 		"/>
		<polygon style="fill:#A9453D;" points="1488.648,1559.707 1489.744,1554.914 1500.708,1553.597 1503.998,1559.796 		"/>
		<path style="fill:#ED823A;" d="M696.802,1265.321h-54.273c-7.236,0-13.157-5.921-13.157-13.157v-15.952
			c0-7.236,5.921-13.157,13.157-13.157h54.273c7.236,0,13.157,5.921,13.157,13.157v15.952
			C709.959,1259.4,704.039,1265.321,696.802,1265.321z"/>
	</g>
	<g>
		<path style="fill:#D9935C;" d="M1563.771,1027.479c0,0-0.833-13.476-0.733-19.311c0.099-5.835,14.514-22.575,19.41-22.575
			c4.896,0,3.264,15.427,2.448,20.225c-0.816,4.798,1.632,9.15-1.088,12.958c-2.72,3.808-8.069,11.877-8.069,11.877
			L1563.771,1027.479z"/>
		<path style="fill:#FFB27D;" d="M1649.771,1049.692l-23.136,22.178c-5.45-4.553-9.77-9.765-13.208-14.855
			c-0.538-0.795-1.055-1.589-1.55-2.372c-3.09-4.944-5.358-9.596-6.99-13.186c-0.267-0.582-0.517-1.132-0.745-1.654
			c-1.278-2.79,12.843-11.728,20.817-17.391c2.476-1.833,4.391-3.27,5.026-4.15c0,0-0.548,3.74-0.025,6.291
			c1.227,5.981,3.856,9.644,6.975,13.063C1645.02,1046.482,1649.771,1049.692,1649.771,1049.692z"/>
		<path style="fill:#ED975D;" d="M1632.271,1025.089c0,0-4.586,24.375-18.844,31.926c-0.538-0.795-1.055-1.589-1.55-2.372
			c-3.09-4.944-5.358-9.596-6.99-13.186c1.735-3.607,13.621-11.195,20.688-16.205
			C1629.563,1025.17,1632.271,1025.089,1632.271,1025.089z"/>
		<path style="fill:#FFB27D;" d="M1603.921,1052.154c0,0,34.627-11.562,27.096-33.014c-7.531-21.453-8.135-37.393-30.561-30.919
			c-22.427,6.474-23.825,16.16-23.053,23.932C1578.175,1019.926,1594.72,1054.608,1603.921,1052.154z"/>
		<path style="fill:#233862;" d="M1633.676,1025.619c0,0-3.523-2.338,4.226-14.579c3.995-6.311,7.559-12.246,1.899-22.514
			c-5.66-10.268-5.301-18.542-20.9-18.539c-15.599,0.003-17.17-7.224-25.116-4.705c-7.946,2.519-15.008,14.195-21.81,16.388
			c-6.802,2.192-11.963,37.838,3.604,36.855c0,0,5.853-2.911,8.469-7.621c2.615-4.71,15.891-15.438,20.109-11.94
			C1608.376,1002.463,1625.304,1025.784,1633.676,1025.619z"/>
		<path style="fill:#ED823A;" d="M1655.455,1105.306c0,0-68.296,30.564-109.805,37.581c0,0-13.004-0.881-13.441-16.879
			c-0.277-10.146,68.155-59.975,93.16-58.49S1664.102,1094.591,1655.455,1105.306z"/>
		<path style="fill:#ED823A;" d="M1577.251,1029.429l-5.663,77.145l-39.379,19.435c0,0,0.613-28.814,11.782-60.693
			c12.09-34.512,18.51-40.146,18.51-40.146S1573.373,1022.715,1577.251,1029.429z"/>
		<path style="fill:#233862;" d="M1639.682,1552.907c-0.31,3.417-1.055,6.305-2.595,7.034c-0.267,0.125-0.712,0.239-1.311,0.337
			h-51.993c-1.393-0.044-2.182-0.07-2.182-0.07s0.131-6.425,8.971-7.67c7.142-1.001,18.69-4.406,24.37-11.81
			c1.343-1.752,2.36-3.732,2.91-5.957c2.861-11.608,21.585,4.025,21.585,4.025s0.212,2.023,0.342,4.83
			C1639.91,1546.363,1639.971,1549.851,1639.682,1552.907z"/>
		<path style="fill:#233862;" d="M1688.433,1560.278h-57.78c0.642-1.479,3.002-5.831,9.029-7.371
			c0.582-0.157,1.197-0.277,1.85-0.369c6.229-0.876,15.808-3.574,21.922-9.161c2.563-2.333,4.516-5.179,5.358-8.605
			c2.861-11.608,21.585,4.025,21.585,4.025s0.195,1.855,0.337,4.488C1691.038,1548.985,1691.109,1558.331,1688.433,1560.278z"/>
		<path style="fill:#2B478B;" d="M1663.897,1245.72c0,0-0.044,2.098-0.126,5.869c-0.524,24.315-2.603,118.329-4.573,170.743
			c-0.083,1.908-0.152,3.752-0.222,5.547c-0.038,0.947-0.075,1.901-0.113,2.843c-1.182,25.338-4.618,50.152-8.093,69.995
			c-4.429,25.307-8.926,42.54-8.926,42.54c-16.883,3.419-27.824-2.999-27.824-2.999s-4.552-39.275-6.283-63.048
			c-0.568-7.713-3.348-34.031-6.835-66.047c-2.704-24.758-5.831-52.926-8.699-78.543c-0.151-1.364-0.297-2.729-0.455-4.074
			c-4.63-41.416-8.465-75.15-8.465-75.15l29.85-2.843L1663.897,1245.72z"/>
		<path style="fill:#233862;" d="M1650.771,1500.717l-49.868-89.554c-2.704-24.758-5.831-52.926-8.699-78.543
			c-0.151-1.364-0.297-2.729-0.455-4.074c-4.63-41.416-8.465-75.15-8.465-75.15l29.85-2.843l50.639,1.036L1650.771,1500.717z"/>
		<path style="fill:#2B478B;" d="M1588.799,1253.619c0,0,27.902,137.926,50.638,204.494c22.735,66.569,23.019,85.062,23.019,85.062
			s20.862,4.522,30.053-0.729c0,0,5.252-126.192-8.505-159.709c-9.099-22.167-16.06-69.347-13.693-86.339
			c2.365-16.993,4.572-51.074,4.572-51.074L1588.799,1253.619z"/>
		<path style="fill:#F99746;" d="M1678.553,1241.738c-1.566,8.438-5.31,15.161-11.092,19.257c-6.593,4.668-16.988,6.354-28.434,6.18
			c-13.365-0.218-28.161-2.976-39.987-6.517c-6.364-1.898-11.858-4.02-15.824-6.087c-17.674-9.215-15.166-21.481-14.742-67.388
			c0.43-46.853,29.266-107.418,34.461-117.558c9.241-18.049,48.463-12.113,48.463-12.113c8.599,7.886,16.128,19.337,21.258,37.642
			c2.078,7.409,3.291,17.771,3.987,29.413c2.121,35.564-0.62,82.993,1.452,94.069
			C1679.684,1227.128,1679.814,1234.982,1678.553,1241.738z"/>
		<path style="fill:#ED823A;" d="M1646.277,1039.62c0,0,6.416,15.189,5.121,17.893c0,0-35.236,3.325-49.578,13.542
			c0,0,4.719-14.75,10.453-18.415C1618.008,1048.976,1646.277,1039.62,1646.277,1039.62z"/>
		<path style="fill:#ED823A;" d="M1678.553,1241.738c-72.979-27.774-31.312-130.482-31.312-130.482
			c10.211,0.724,20.214,5.685,29.402,13.312c2.121,35.564-0.62,82.993,1.452,94.069
			C1679.684,1227.128,1679.814,1234.982,1678.553,1241.738z"/>
		<path style="fill:#F99746;" d="M1645.186,1064.353c0,0,62.556,41.911,89.715,74.076c0,0-1.646,12.825-10.418,17.93
			c-8.772,5.104-85.079-24.597-96.522-46.879C1616.518,1087.197,1631.563,1062.361,1645.186,1064.353z"/>
		<path style="fill:#FFB27D;" d="M1653.888,1199.771c0,0-3.998,6.927-7.847,5.295c-3.848-1.633-11.613-3.354-17.387,0.362
			c-5.771,3.717-14.476,13.752-9.036,16.199c5.44,2.448,15.775-4.051,18.224-5.139c2.447-1.088,6.709,1.088,11.423-1.269
			c4.715-2.357,9.61-7.072,9.61-7.072L1653.888,1199.771z"/>
		<path style="fill:#F99746;" d="M1647.607,1201.637l51.319-70.177l35.974,6.969c0,0-4.797,23.701-30.881,45.165
			c-26.877,22.116-41.706,26.506-41.706,26.506S1644.489,1213.165,1647.607,1201.637z"/>
	</g>
	<g>
		<g id="man_63_">
			<path style="fill:#FFB27D;" d="M2012.615,1109.547c2.449,6.586,6.694,14.229,11.149,16.129c5.051,2.155,7.157,5.199,7.157,5.199
				l4.079-2.367l4.872-2.832c0,0-0.115-0.54-0.354-1.422c-0.234-0.877-0.601-2.099-1.095-3.453c0,0-1.494-1.92-0.579-4.335
				c0.915-2.409,0.732-6.136-0.83-8.409c-1.563-2.27-3.07-7.864-4.012-7.698c-2.277,0.392,1.12,8.081,0.146,9.508
				c-0.882,1.29-1.984,0.848-2.188,0.749c-0.014-0.008-0.025-0.013-0.039-0.021c-6.391-2.811-14.142-17.959-17.574-15.915
				C2012.066,1095.445,2011.571,1106.741,2012.615,1109.547z"/>
			<g>
				<path style="fill:#2B478B;" d="M2034.725,1118.718l-8.006,5.627c-0.566,0.397-1.354,0.26-1.751-0.306l-20.51-29.183
					c-0.397-0.565-0.26-1.354,0.306-1.751l8.006-5.626c0.566-0.397,1.354-0.261,1.751,0.306l20.51,29.182
					C2035.428,1117.533,2035.29,1118.32,2034.725,1118.718z"/>
				<path style="fill:#233862;" d="M2027.395,1123.869l-4.693,3.299c-0.43,0.302-1.029,0.197-1.332-0.232l-20.854-29.675
					c-0.303-0.431-0.198-1.029,0.232-1.332l4.693-3.299c0.431-0.302,1.03-0.197,1.333,0.233l20.854,29.674
					C2027.93,1122.967,2027.825,1123.566,2027.395,1123.869z"/>
			</g>
			<path style="fill:#233862;" d="M2149.58,1076.843c0,0-40.738,71.055-55.518,84.129l-54.191-40.402c0,0-7.863,2.412-11.307,10.306
				c0,0,32.907,67.046,65.309,69.888c32.4,2.843,77.877-80.361,77.877-80.361L2149.58,1076.843z"/>
			<g>
				<path style="fill:#233862;" d="M2241.77,1560.124h23.539c2.964-1.61,5.604-5.293,6.438-10.786
					c1.15-7.583,9.649-11.718,11.488-17.922c1.836-6.199-7.583-14.929-7.583-14.929l-1.576-2.03l-1.639-2.108l-15.623,3.679
					c0,0-0.388,3.722-0.621,8.461c-0.171,3.419-0.26,7.371-0.068,10.837c0.46,8.269-2.313,17.177-9.661,18.786
					C2241.029,1555.299,2241.272,1558.522,2241.77,1560.124z"/>
				<path style="fill:#233862;" d="M2105.165,1560.124h53.829c2.589-3.16,1.636-14.818,1.244-18.625
					c-0.081-0.767-0.137-1.214-0.137-1.214s-18.382-14.702-20.907-3.444c-0.076,0.354-0.17,0.698-0.272,1.039
					c-3.181,10.53-17.449,15.316-25.688,16.648C2107.877,1555.397,2105.897,1558.182,2105.165,1560.124z"/>
				<path style="fill:#FFA25C;" d="M2115.422,1259.652c0,0,2.791,34.824,6.071,76.685c4.459,56.863,9.821,126.712,10.352,139.944
					c0.916,22.977,4.597,59.73,4.597,59.73s8.725,8.732,26.188,5.052c0,0,15.562-52.467,20.007-107.98
					c0.069-0.909,0.138-1.826,0.207-2.742c4.135-56.513,10.564-175.513,10.564-175.513L2115.422,1259.652z"/>
				<path style="fill:#EF8C48;" d="M2115.422,1259.652c0,0,2.791,34.824,6.071,76.685l61.144,96.746
					c0.069-0.909,0.138-1.826,0.207-2.742c4.135-56.513,10.564-175.513,10.564-175.513L2115.422,1259.652z"/>
				<path style="fill:#FFA25C;" d="M2128.168,1263.787c0,0,50.311,126.12,83.391,185.389c33.08,59.27,43.418,75.81,43.418,75.81
					s18.953-7.581,20.676-12.749c0,0-12.65-114.423-34.804-142.315c-12.519-15.762-27.223-63.06-27.912-79.601
					c-0.688-16.54-4.479-49.275-4.479-49.275L2128.168,1263.787z"/>
			</g>
			<path style="fill:#FFB27D;" d="M2140.692,1079.932c19.659,6.203,53.676-10.539,53.676-10.539s-18.126-13.604-17.177-41.89
				l-15.201,12.25l-10.325,8.32c0,0,0.042,4.905,1.171,13.502c0.298,2.261,0.668,4.782,1.137,7.536
				C2145.533,1073.744,2140.692,1079.932,2140.692,1079.932z"/>
			<path style="fill:#ED975D;" d="M2151.665,1048.073c0,0,0.042,4.905,1.171,13.502c11.441-1.963,24.42-20.455,24.42-20.455
				c-5.825-1.683-10.927-1.984-15.266-1.367L2151.665,1048.073z"/>
			<path style="fill:#FFB27D;" d="M2145.652,1047.607c0,0,32.474,5.395,35.521-14.88c3.049-20.274,9.293-33.232-11.312-37.534
				c-20.604-4.302-25.806,2.828-28.469,9.348C2138.73,1011.06,2137.284,1045.682,2145.652,1047.607z"/>
			<path style="fill:#2B478B;" d="M2113.252,1262.553c0.592,0.491,1.279,0.787,2.066,0.787c7.383-0.1,28.911,4,47.127,2.13
				c15.357-1.475,28.949-6.023,43.546-12.566c1.938-0.869,6.399-3.25,6.3-5.417c-0.065-2.372-0.301-5.813-0.597-10.146
				c-1.033-15.065-2.834-40.98-1.079-70.877c0.316-5.567,0.482-11.089,0.502-16.525c0.15-40.52-7.884-76.159-24.028-88.221
				c-1.38-0.988-9.846,3.149-17.624,6.986c-7.188,3.546-14.375,3.937-21.165,2.563l-6.791,6.004
				c-8.271,7.678-17.328,18.115-21.266,33.964c-3.35,13.486-5.316,37.806-6.399,63.009c-0.491,11.42-0.888,22.939-0.988,33.868
				v0.392c-0.095,1.083-0.095,2.267-0.095,3.35C2112.364,1239.908,2112.761,1262.156,2113.252,1262.553z"/>
			<path style="fill:#233862;" d="M2211.694,1237.34c-1.033-15.065-2.834-40.98-1.079-70.877c0.316-5.567,0.482-11.089,0.502-16.525
				c-6.726-16.315-12.223-28.146-12.223-28.146h-16.952C2181.942,1121.791,2169.515,1206.682,2211.694,1237.34z"/>
			<path style="fill:#FFB27D;" d="M2243.551,1240.257c0,0,3.797,5.059,3.947,7.079c1.021,13.697-5.238,15.592,10.967,23.2
				c0,0,6.917,2.638,7.035-2.731c0.117-5.369-4.801-5.459-3.901-12.977c1.037-8.673,0.933-8.754-4.76-13.283l-3.769-6.229
				L2243.551,1240.257z"/>
			<path style="fill:#2B478B;" d="M2253.206,1244.134c-6.104,1.19-12.722,0.708-12.722,0.708s-18.122-55.984-20.455-61.098
				c-2.332-5.114-53.83-65.645-53.83-65.645l21.453-53.688c0,0,55.7,93.041,61.355,106.114c9.347,21.604,12.591,70.04,12.591,70.04
				S2258.001,1243.199,2253.206,1244.134z"/>
			<path style="fill:#2B478B;" d="M2181.201,1030.776c0,0-3.333-0.558-2.795-5.147c0.537-4.59,0.53-10.589-3.201-9.471
				c-3.732,1.118-3.918,4.105-5.451,2.361c-1.534-1.745-1.562-9.097-12.666-9.608c-11.104-0.512-15.616,3.354-20.779,1.083
				c-5.164-2.269-5.437-10.086-5.437-10.086s1.468,2.791,3.687,3.679c0,0-8.614-11.783,1.359-19.863
				c9.974-8.08,20.144-2.79,25.916-2.441c12.718,0.77,20.933,1.533,25.087,9.89
				C2191.075,999.53,2189.361,1022.732,2181.201,1030.776z"/>
			<path style="fill:#FFB27D;" d="M2249.54,1246.281c0,0-3.656,3.811-3.887,5.396c-0.741,5.09-2.44,7.288-1.589,7.842
				c1.771,1.151,4.115-2.617,5.234-5.999C2250.418,1250.14,2249.54,1246.281,2249.54,1246.281z"/>
		</g>
	</g>
	<path style="fill:#2E3552;" d="M3079.953,1566.505l-0.011,1.48c0,1.966-1.555,3.582-3.445,3.57l-2217.518-7.412l-680.155-2.282
		l-38.096-0.125c-1.89,0-3.424-1.627-3.424-3.594l0.011-1.479c0-1.978,1.555-3.582,3.435-3.582l38.075,0.124l2741.53,9.176
		l156.175,0.52C3078.42,1562.911,3079.953,1564.527,3079.953,1566.505z"/>
</g>
</svg>
